<svg width="28" height="30" viewBox="0 0 28 30" fill="none" xmlns="http://www.w3.org/2000/svg">
<path d="M19.1798 28.44C19.1798 28.7301 19.0646 29.0083 18.8595 29.2134C18.6543 29.4185 18.3761 29.5337 18.0861 29.5337H9.33607C9.04599 29.5337 8.76779 29.4185 8.56267 29.2134C8.35755 29.0083 8.24232 28.7301 8.24232 28.44C8.24232 28.1499 8.35755 27.8717 8.56267 27.6666C8.76779 27.4615 9.04599 27.3462 9.33607 27.3462H18.0861C18.3761 27.3462 18.6543 27.4615 18.8595 27.6666C19.0646 27.8717 19.1798 28.1499 19.1798 28.44ZM27.2995 6.06185C26.0703 3.65923 24.2244 1.62655 21.9511 0.172007C21.8296 0.0944176 21.694 0.0416001 21.5521 0.016591C21.4102 -0.00841812 21.2647 -0.0051254 21.124 0.0262796C20.9833 0.0576847 20.8503 0.116583 20.7324 0.199588C20.6146 0.282594 20.5143 0.388069 20.4374 0.509952C20.3605 0.631835 20.3084 0.767722 20.2841 0.9098C20.2599 1.05188 20.264 1.19735 20.2961 1.33784C20.3283 1.47834 20.3879 1.61109 20.4716 1.72847C20.5552 1.84585 20.6612 1.94554 20.7835 2.02181C22.7339 3.26254 24.3142 5.00569 25.3581 7.0681C25.4961 7.31739 25.7259 7.503 25.9986 7.58545C26.2713 7.6679 26.5655 7.64067 26.8184 7.50956C27.0714 7.37845 27.2632 7.15381 27.3531 6.88343C27.4429 6.61306 27.4237 6.31829 27.2995 6.06185ZM1.09329 7.65873C1.29367 7.65864 1.49018 7.60351 1.66136 7.49936C1.83254 7.3952 1.97182 7.24602 2.064 7.0681C3.10798 5.00569 4.6882 3.26254 6.63861 2.02181C6.7609 1.94554 6.86692 1.84585 6.95056 1.72847C7.0342 1.61109 7.09382 1.47834 7.12599 1.33784C7.15815 1.19735 7.16223 1.05188 7.13799 0.9098C7.11375 0.767722 7.06167 0.631835 6.98474 0.509952C6.90781 0.388069 6.80755 0.282594 6.68971 0.199588C6.57188 0.116583 6.43881 0.0576847 6.29814 0.0262796C6.15747 -0.0051254 6.01198 -0.00841812 5.87004 0.016591C5.72809 0.0416001 5.59249 0.0944176 5.47103 0.172007C3.1977 1.62655 1.35186 3.65923 0.122589 6.06185C0.0362344 6.22854 -0.00576399 6.41465 0.00063588 6.60226C0.00703575 6.78988 0.0616184 6.97269 0.159131 7.13311C0.256643 7.29352 0.393803 7.42614 0.55741 7.5182C0.721018 7.61025 0.905565 7.65865 1.09329 7.65873ZM26.5367 21.8693C26.7304 22.2016 26.8332 22.5791 26.8345 22.9637C26.8358 23.3484 26.7357 23.7266 26.5442 24.0602C26.3527 24.3938 26.0766 24.671 25.7438 24.8639C25.411 25.0567 25.0332 25.1584 24.6486 25.1587H2.77357C2.38914 25.158 2.01171 25.0559 1.67928 24.8629C1.34685 24.6698 1.07117 24.3925 0.88001 24.059C0.688849 23.7255 0.588957 23.3475 0.590397 22.963C0.591838 22.5786 0.694559 22.2014 0.888214 21.8693C2.12005 19.7433 2.77357 16.7204 2.77357 13.1275C2.77357 10.2267 3.92591 7.44467 5.97709 5.3935C8.02826 3.34232 10.8103 2.18998 13.7111 2.18998C16.6119 2.18998 19.3939 3.34232 21.445 5.3935C23.4962 7.44467 24.6486 10.2267 24.6486 13.1275C24.6486 16.7191 25.3021 19.7419 26.5367 21.8693ZM24.6486 22.9712C23.1939 20.4734 22.4611 17.162 22.4611 13.1275C22.4611 10.8068 21.5392 8.58123 19.8983 6.94029C18.2573 5.29935 16.0317 4.37748 13.7111 4.37748C11.3904 4.37748 9.16483 5.29935 7.52388 6.94029C5.88294 8.58123 4.96107 10.8068 4.96107 13.1275C4.96107 17.1634 4.22552 20.4747 2.77357 22.9712H24.6486Z" fill="#EDEAF1"/>
</svg>
